<svg width="390" height="90" viewBox="0 0 390 90" fill="none" xmlns="http://www.w3.org/2000/svg">
<path d="M43.369 51.87C42.5383 54.54 41.322 56.9133 39.72 58.99C38.118 61.0667 36.249 62.817 34.113 64.241C31.977 65.665 29.663 66.733 27.171 67.445C24.679 68.2163 22.1573 68.602 19.606 68.602C16.224 68.602 13.3167 68.0087 10.884 66.822C8.51067 65.576 6.55267 64.0037 5.01 62.105C3.52667 60.2063 2.429 58.0703 1.717 55.697C1.005 53.2643 0.649 50.8317 0.649 48.399C0.649 44.0083 1.68733 40.211 3.764 37.007C5.9 33.803 8.86667 31.4297 12.664 29.887C9.816 28.107 7.769 26.06 6.523 23.746C5.277 21.432 4.654 18.9993 4.654 16.448C4.654 14.49 5.01 12.532 5.722 10.574C6.434 8.616 7.53167 6.86566 9.015 5.323C10.4983 3.78033 12.308 2.53433 14.444 1.585C16.6393 0.576331 19.2203 0.071997 22.187 0.071997C23.789 0.071997 25.391 0.249996 26.993 0.605995C28.6543 0.961998 30.1377 1.585 31.443 2.475C32.7483 3.30566 33.7867 4.46266 34.558 5.946C35.3887 7.36999 35.804 9.17966 35.804 11.375C35.804 13.6297 35.359 15.4097 34.469 16.715C33.579 18.0203 32.3923 18.673 30.909 18.673C29.307 18.673 27.7347 17.872 26.192 16.27C27.0227 15.914 27.8237 15.202 28.595 14.134C29.4257 13.0067 29.841 11.5827 29.841 9.862C29.841 8.73467 29.6333 7.78533 29.218 7.014C28.8027 6.18333 28.239 5.501 27.527 4.967C26.8743 4.433 26.1327 4.04733 25.302 3.81C24.4713 3.57266 23.611 3.454 22.721 3.454C21.119 3.454 19.695 3.81 18.449 4.522C17.203 5.234 16.1647 6.18333 15.334 7.37C14.5033 8.49733 13.8507 9.80266 13.376 11.286C12.9607 12.71 12.753 14.1637 12.753 15.647C12.753 16.2997 12.8123 17.3083 12.931 18.673C13.109 19.9783 13.5243 21.3727 14.177 22.856C14.889 24.28 15.8977 25.6743 17.203 27.039C18.5677 28.3443 20.407 29.264 22.721 29.798C18.805 30.688 15.779 32.7053 13.643 35.85C11.5663 38.9353 10.528 42.614 10.528 46.886C10.528 51.158 11.6553 54.6883 13.91 57.477C16.224 60.2063 19.7543 61.571 24.501 61.571C26.637 61.571 28.595 61.304 30.375 60.77C32.2143 60.1767 33.8163 59.4053 35.181 58.456C36.605 57.4473 37.8213 56.32 38.83 55.074C39.8387 53.7687 40.61 52.404 41.144 50.98L43.369 51.87ZM69.5586 37.007C69.5586 40.389 69.262 43.8897 68.6686 47.509C68.1346 51.069 67.215 54.3323 65.9096 57.299C64.6043 60.2657 62.9133 62.728 60.8366 64.686C58.76 66.5847 56.179 67.534 53.0936 67.534C51.551 67.534 50.038 67.267 48.5546 66.733C47.1306 66.199 45.8253 65.4277 44.6386 64.419C43.5113 63.4103 42.5916 62.1347 41.8796 60.592C41.227 59.0493 40.9006 57.299 40.9006 55.341V22.5H49.8006V52.76C49.8006 53.7687 49.86 54.7477 49.9786 55.697C50.0973 56.6463 50.3346 57.5067 50.6906 58.278C51.106 58.99 51.64 59.5833 52.2926 60.058C53.0046 60.5327 53.8946 60.77 54.9626 60.77C56.802 60.77 58.3446 60.1173 59.5906 58.812C60.8366 57.4473 61.8453 55.697 62.6166 53.561C63.4473 51.425 64.0406 49.0517 64.3966 46.441C64.7526 43.771 64.9306 41.1307 64.9306 38.52C64.9306 36.8587 64.8713 35.227 64.7526 33.625C64.634 31.9637 64.4263 30.4803 64.1296 29.175C63.833 29.4717 63.4473 29.6793 62.9726 29.798C62.498 29.8573 62.1123 29.887 61.8156 29.887C60.3916 29.887 59.3236 29.3827 58.6116 28.374C57.8996 27.3653 57.5436 26.2973 57.5436 25.17C57.5436 23.9833 57.9293 22.945 58.7006 22.055C59.472 21.1057 60.5993 20.631 62.0826 20.631C63.0913 20.631 64.0406 20.9277 64.9306 21.521C65.88 22.1143 66.681 23.0637 67.3336 24.369C68.0456 25.615 68.5796 27.2763 68.9356 29.353C69.351 31.4297 69.5586 33.981 69.5586 37.007ZM104.305 33.625C104.305 37.7783 102.585 41.2493 99.1435 44.038C95.7615 46.8267 91.0445 48.5473 84.9925 49.2C85.2298 51.5733 85.6452 53.5017 86.2385 54.985C86.8912 56.4683 87.6625 57.655 88.5525 58.545C89.4425 59.3757 90.4512 59.969 91.5785 60.325C92.7652 60.6217 93.9815 60.77 95.2275 60.77C98.0755 60.77 100.745 60.0283 103.237 58.545C105.729 57.0617 107.747 54.5697 109.289 51.069H112.137C111.366 53.2643 110.298 55.3707 108.933 57.388C107.569 59.346 105.967 61.0963 104.127 62.639C102.288 64.1223 100.3 65.309 98.1645 66.199C96.0285 67.089 93.8332 67.534 91.5785 67.534C89.5018 67.534 87.4845 67.178 85.5265 66.466C83.6278 65.754 81.9368 64.597 80.4535 62.995C78.9702 61.3337 77.7538 59.1977 76.8045 56.587C75.9145 53.9763 75.4695 50.7723 75.4695 46.975C75.4695 44.483 75.7365 41.7833 76.2705 38.876C76.8638 35.9687 77.8132 33.269 79.1185 30.777C80.4832 28.285 82.2335 26.2083 84.3695 24.547C86.5648 22.8857 89.2645 22.055 92.4685 22.055C93.9518 22.055 95.3758 22.233 96.7405 22.589C98.1645 22.8857 99.4402 23.479 100.567 24.369C101.695 25.1997 102.585 26.3567 103.237 27.84C103.949 29.3233 104.305 31.2517 104.305 33.625ZM84.9035 45.729C89.1162 45.0763 92.4388 43.593 94.8715 41.279C97.3635 38.965 98.6095 36.117 98.6095 32.735C98.6095 30.4803 98.2238 28.8783 97.4525 27.929C96.6812 26.9203 95.5835 26.416 94.1595 26.416C92.6168 26.416 91.2522 27.0093 90.0655 28.196C88.9382 29.3827 87.9888 30.9253 87.2175 32.824C86.4462 34.6633 85.8528 36.74 85.4375 39.054C85.0815 41.3087 84.9035 43.5337 84.9035 45.729ZM118.115 22.5V29.264C119.005 27.662 119.895 26.3863 120.785 25.437C121.734 24.4283 122.684 23.6867 123.633 23.212C124.582 22.7373 125.472 22.4407 126.303 22.322C127.193 22.144 128.024 22.055 128.795 22.055C131.465 22.055 133.601 22.5593 135.203 23.568C136.864 24.5767 138.11 25.882 138.941 27.484C139.772 29.0267 140.306 30.7473 140.543 32.646C140.84 34.4853 140.988 36.2653 140.988 37.986C140.988 39.054 140.958 40.2407 140.899 41.546C140.84 42.792 140.78 44.0973 140.721 45.462C140.662 46.7673 140.602 48.1023 140.543 49.467C140.484 50.7723 140.454 51.9887 140.454 53.116C140.454 53.5907 140.484 54.273 140.543 55.163C140.602 55.9937 140.751 56.8243 140.988 57.655C141.225 58.4857 141.611 59.2273 142.145 59.88C142.679 60.4733 143.45 60.77 144.459 60.77C145.824 60.77 147.04 59.9987 148.108 58.456C149.235 56.9133 150.155 54.451 150.867 51.069H154.16C153.507 54.807 152.677 57.7737 151.668 59.969C150.659 62.105 149.591 63.7367 148.464 64.864C147.337 65.9913 146.209 66.7033 145.082 67C143.955 67.356 142.916 67.534 141.967 67.534C140.068 67.534 138.466 67.178 137.161 66.466C135.856 65.6947 134.788 64.686 133.957 63.44C133.126 62.194 132.503 60.7403 132.088 59.079C131.732 57.4177 131.554 55.697 131.554 53.917C131.554 53.383 131.554 52.404 131.554 50.98C131.613 49.4967 131.643 47.9243 131.643 46.263C131.702 44.6017 131.732 43.0293 131.732 41.546C131.791 40.0627 131.821 39.0243 131.821 38.431C131.821 36.5323 131.673 34.96 131.376 33.714C131.079 32.468 130.664 31.489 130.13 30.777C129.596 30.065 128.973 29.5607 128.261 29.264C127.608 28.9673 126.896 28.819 126.125 28.819C124.286 28.819 122.684 29.5607 121.319 31.044C120.014 32.5273 118.946 35.0193 118.115 38.52V67H109.215V22.5H118.115ZM159.749 8.972V22.5H166.602V25.615H159.749V52.76C159.749 53.472 159.749 54.3027 159.749 55.252C159.808 56.142 159.957 57.0023 160.194 57.833C160.491 58.6637 160.876 59.3757 161.351 59.969C161.885 60.503 162.656 60.77 163.665 60.77C164.14 60.77 164.703 60.7107 165.356 60.592C166.068 60.4733 166.602 60.3547 166.958 60.236C167.017 60.5327 167.047 60.7997 167.047 61.037C167.106 61.2743 167.136 61.5413 167.136 61.838C167.136 62.8467 166.899 63.7367 166.424 64.508C166.009 65.22 165.445 65.8133 164.733 66.288C164.021 66.7033 163.22 67 162.33 67.178C161.44 67.4153 160.55 67.534 159.66 67.534C157.88 67.534 156.426 67.178 155.299 66.466C154.172 65.6947 153.252 64.7157 152.54 63.529C151.887 62.283 151.442 60.9183 151.205 59.435C150.968 57.9517 150.849 56.4683 150.849 54.985V25.615H147.823V22.5H150.849V10.218L159.749 8.972ZM238.792 10.93C236.656 10.93 234.342 10.7223 231.85 10.307C229.417 9.89166 226.866 9.38733 224.196 8.794V67H214.584V7.37C213.931 7.25133 213.308 7.192 212.715 7.192C212.181 7.192 211.617 7.192 211.024 7.192C206.04 7.192 202.213 8.11166 199.543 9.951C196.932 11.731 195.627 14.9943 195.627 19.741C195.627 23.301 196.013 26.0303 196.784 27.929C197.615 29.7683 198.445 31.1627 199.276 32.112C197.793 32.112 196.398 31.9043 195.093 31.489C193.847 31.0143 192.749 30.2727 191.8 29.264C190.851 28.2553 190.109 26.95 189.575 25.348C189.041 23.6867 188.774 21.6397 188.774 19.207C188.774 16.7743 189.249 14.4307 190.198 12.176C191.147 9.92133 192.66 7.93366 194.737 6.213C196.873 4.433 199.602 3.009 202.925 1.941C206.307 0.872999 210.431 0.338999 215.296 0.338999C217.669 0.338999 219.805 0.457664 221.704 0.694994C223.662 0.872996 225.472 1.11033 227.133 1.407C228.854 1.64433 230.545 1.88166 232.206 2.119C233.867 2.297 235.618 2.386 237.457 2.386C239.949 2.386 242.026 2.208 243.687 1.852C245.408 1.43666 246.832 0.991664 247.959 0.516997C248.137 1.585 248.226 2.59366 248.226 3.54299C248.226 8.46766 245.081 10.93 238.792 10.93ZM251.701 22.055C254.015 22.055 256.003 22.411 257.664 23.123C259.326 23.835 260.69 24.8437 261.758 26.149C262.826 27.395 263.657 28.8783 264.25 30.599C264.903 32.3197 265.378 34.159 265.674 36.117H266.208C268.7 36.117 270.985 35.6127 273.061 34.604C275.138 33.5953 276.918 32.3197 278.401 30.777L279.736 33.18C278.55 35.0787 276.651 36.651 274.04 37.897C271.489 39.143 268.849 40.0033 266.119 40.478C266.119 41.0713 266.119 41.6647 266.119 42.258C266.179 42.8513 266.208 43.4743 266.208 44.127C266.208 51.425 264.873 57.1507 262.203 61.304C259.533 65.4573 255.795 67.534 250.989 67.534C249.031 67.534 247.044 67.178 245.026 66.466C243.068 65.754 241.288 64.5673 239.686 62.906C238.084 61.2447 236.779 59.1087 235.77 56.498C234.821 53.8873 234.346 50.6537 234.346 46.797C234.346 44.1863 234.613 41.4273 235.147 38.52C235.741 35.6127 236.69 32.9427 237.995 30.51C239.36 28.0773 241.14 26.06 243.335 24.458C245.59 22.856 248.379 22.055 251.701 22.055ZM252.591 60.77C255.736 60.77 258.05 59.2273 259.533 56.142C261.017 52.9973 261.758 48.577 261.758 42.881C261.758 42.525 261.758 42.169 261.758 41.813C261.758 41.457 261.729 41.101 261.669 40.745C259.949 40.6263 258.703 40.2407 257.931 39.588C257.219 38.9353 256.863 37.8377 256.863 36.295C256.863 34.9303 257.16 33.981 257.753 33.447C258.347 32.8537 259.237 32.5273 260.423 32.468C259.711 30.3913 258.792 28.9673 257.664 28.196C256.596 27.3653 255.38 26.95 254.015 26.95C252.176 26.95 250.604 27.573 249.298 28.819C248.052 30.0057 247.014 31.5483 246.183 33.447C245.412 35.3457 244.848 37.452 244.492 39.766C244.136 42.0207 243.958 44.2457 243.958 46.441C243.958 49.3483 244.225 51.7217 244.759 53.561C245.293 55.4003 245.976 56.854 246.806 57.922C247.637 58.99 248.557 59.7317 249.565 60.147C250.574 60.5623 251.583 60.77 252.591 60.77ZM305.541 4.7V52.76C305.541 53.3533 305.571 54.095 305.63 54.985C305.69 55.875 305.838 56.765 306.075 57.655C306.372 58.4857 306.787 59.2273 307.321 59.88C307.855 60.4733 308.597 60.77 309.546 60.77C312.454 60.77 314.59 57.5363 315.954 51.069H319.247C318.595 54.807 317.764 57.7737 316.755 59.969C315.747 62.105 314.679 63.7367 313.551 64.864C312.424 65.9913 311.267 66.7033 310.08 67C308.894 67.356 307.826 67.534 306.876 67.534C305.512 67.534 304.325 67.2967 303.316 66.822C302.367 66.3473 301.536 65.7243 300.824 64.953C300.172 64.1817 299.638 63.2917 299.222 62.283C298.807 61.2743 298.481 60.2063 298.243 59.079C297.353 61.393 295.9 63.3807 293.882 65.042C291.924 66.7033 289.521 67.534 286.673 67.534C284.893 67.534 283.084 67.178 281.244 66.466C279.464 65.754 277.833 64.597 276.349 62.995C274.925 61.3337 273.739 59.2273 272.789 56.676C271.899 54.0653 271.454 50.891 271.454 47.153C271.454 44.4237 271.751 41.5757 272.344 38.609C272.997 35.6423 274.006 32.9427 275.37 30.51C276.735 28.0773 278.485 26.06 280.621 24.458C282.757 22.856 285.338 22.055 288.364 22.055C289.076 22.055 289.818 22.144 290.589 22.322C291.42 22.4407 292.191 22.678 292.903 23.034C293.675 23.39 294.387 23.8943 295.039 24.547C295.692 25.1403 296.226 25.882 296.641 26.772V5.946L305.541 4.7ZM288.898 60.77C289.788 60.77 290.678 60.5327 291.568 60.058C292.518 59.524 293.348 58.8417 294.06 58.011C294.832 57.121 295.455 56.0827 295.929 54.896C296.404 53.7093 296.641 52.4337 296.641 51.069V30.777C296.226 29.8277 295.573 28.9673 294.683 28.196C293.853 27.3653 292.755 26.95 291.39 26.95C289.492 26.95 287.86 27.6027 286.495 28.908C285.131 30.154 284.033 31.756 283.202 33.714C282.372 35.6127 281.749 37.719 281.333 40.033C280.977 42.2877 280.799 44.4533 280.799 46.53C280.799 51.6327 281.482 55.2817 282.846 57.477C284.27 59.6723 286.288 60.77 288.898 60.77ZM348.738 22.5V52.76C348.738 53.3533 348.767 54.095 348.827 54.985C348.886 55.875 349.034 56.765 349.272 57.655C349.568 58.4857 349.984 59.2273 350.518 59.88C351.052 60.4733 351.793 60.77 352.743 60.77C355.65 60.77 357.786 57.5363 359.151 51.069H362.444C361.791 54.807 360.96 57.7737 359.952 59.969C358.943 62.105 357.875 63.7367 356.748 64.864C355.62 65.9913 354.463 66.7033 353.277 67C352.09 67.356 351.022 67.534 350.073 67.534C348.708 67.534 347.521 67.2967 346.513 66.822C345.563 66.3473 344.733 65.7243 344.021 64.953C343.368 64.1817 342.834 63.2917 342.419 62.283C342.003 61.2743 341.677 60.2063 341.44 59.079C340.55 61.393 339.096 63.3807 337.079 65.042C335.121 66.7033 332.718 67.534 329.87 67.534C328.09 67.534 326.28 67.178 324.441 66.466C322.661 65.754 321.029 64.597 319.546 62.995C318.122 61.3337 316.935 59.2273 315.986 56.676C315.096 54.0653 314.651 50.891 314.651 47.153C314.651 44.4237 314.947 41.5757 315.541 38.609C316.193 35.6423 317.202 32.9427 318.567 30.51C319.931 28.0773 321.682 26.06 323.818 24.458C325.954 22.856 328.535 22.055 331.561 22.055C332.273 22.055 333.014 22.144 333.786 22.322C334.616 22.4407 335.388 22.678 336.1 23.034C336.871 23.39 337.583 23.8943 338.236 24.547C338.888 25.1403 339.422 25.882 339.838 26.772V22.5H348.738ZM332.095 60.77C332.985 60.77 333.875 60.5327 334.765 60.058C335.714 59.524 336.545 58.8417 337.257 58.011C338.028 57.121 338.651 56.0827 339.126 54.896C339.6 53.7093 339.838 52.4337 339.838 51.069V30.777C339.422 29.8277 338.77 28.9673 337.88 28.196C337.049 27.3653 335.951 26.95 334.587 26.95C332.688 26.95 331.056 27.6027 329.692 28.908C328.327 30.154 327.229 31.756 326.399 33.714C325.568 35.6127 324.945 37.719 324.53 40.033C324.174 42.2877 323.996 44.4533 323.996 46.53C323.996 51.6327 324.678 55.2817 326.043 57.477C327.467 59.6723 329.484 60.77 332.095 60.77ZM389.175 22.5V74.031C389.175 76.8197 388.878 79.1633 388.285 81.062C387.692 83.02 386.861 84.5923 385.793 85.779C384.784 87.025 383.598 87.915 382.233 88.449C380.928 88.983 379.533 89.25 378.05 89.25C375.083 89.25 372.769 88.3897 371.108 86.669C369.447 85.0077 368.616 82.9607 368.616 80.528C368.616 78.9853 368.942 77.591 369.595 76.345C370.307 75.099 371.197 73.942 372.265 72.874C373.392 71.8653 374.638 70.9457 376.003 70.115C377.427 69.3437 378.851 68.6613 380.275 68.068V62.461C379.088 64.1817 377.724 65.4573 376.181 66.288C374.698 67.1187 373.185 67.534 371.642 67.534C369.921 67.534 368.29 67.2967 366.747 66.822C365.204 66.3473 363.869 65.576 362.742 64.508C361.615 63.3807 360.725 61.9567 360.072 60.236C359.419 58.456 359.093 56.2903 359.093 53.739V22.5H367.993V52.76C367.993 55.6673 368.497 57.744 369.506 58.99C370.515 60.1767 371.79 60.77 373.333 60.77C374.164 60.77 374.994 60.5623 375.825 60.147C376.656 59.6723 377.397 59.0197 378.05 58.189C378.703 57.3583 379.237 56.3497 379.652 55.163C380.067 53.9763 380.275 52.6117 380.275 51.069V22.5H389.175ZM376.359 84.622C377.961 84.622 378.999 83.999 379.474 82.753C380.008 81.5663 380.275 79.9347 380.275 77.858V71.628C377.308 72.9927 375.202 74.3277 373.956 75.633C372.71 76.9977 372.087 78.5107 372.087 80.172C372.087 81.5367 372.443 82.6047 373.155 83.376C373.926 84.2067 374.994 84.622 376.359 84.622Z" fill="white"/>
</svg>
